<?xml version="1.0" encoding="UTF-8" standalone="no"?>
<!DOCTYPE svg PUBLIC "-//W3C//DTD SVG 1.1//EN"
 "http://www.w3.org/Graphics/SVG/1.1/DTD/svg11.dtd">
<!-- Generated by graphviz version 12.2.1 (20241206.2353)
 -->
<!-- Title: GraphProblemSearchSpace Pages: 1 -->
<svg width="258pt" height="1296pt"
 viewBox="0.00 0.00 258.40 1295.68" xmlns="http://www.w3.org/2000/svg" xmlns:xlink="http://www.w3.org/1999/xlink">
<g id="graph0" class="graph" transform="scale(1 1) rotate(0) translate(4 1291.68)">
<title>GraphProblemSearchSpace</title>
<polygon fill="white" stroke="none" points="-4,4 -4,-1291.68 254.4,-1291.68 254.4,4 -4,4"/>
<!-- 0 -->
<g id="node1" class="node">
<title>0</title>
<ellipse fill="none" stroke="lawngreen" stroke-width="3" cx="161.78" cy="-1243.9" rx="32.53" ry="32.53"/>
<text text-anchor="start" x="146.78" y="-1250.6" font-family="Times,serif" font-size="14.00">(0, 0)</text>
<text text-anchor="start" x="150.9" y="-1242.3" font-family="Times,serif" font-size="8.00">g(n)=0</text>
<text text-anchor="start" x="150.9" y="-1234.3" font-family="Times,serif" font-size="8.00">h(n)=0</text>
<text text-anchor="start" x="151.28" y="-1226.3" font-family="Times,serif" font-size="8.00">f(n)=0</text>
<text text-anchor="start" x="114.25" y="-1278.18" font-family="Times,serif" font-size="10.00">e: 1</text>
</g>
<!-- 3 -->
<g id="node2" class="node">
<title>3</title>
<text text-anchor="middle" x="129.78" y="-1152.33" font-family="Times,serif" font-size="14.00">fill(1) c1</text>
</g>
<!-- 0&#45;&#45;3 -->
<g id="edge1" class="edge">
<title>0&#45;&#45;3</title>
<path fill="none" stroke="black" d="M150.22,-1212.39C145.5,-1199.9 140.21,-1185.93 136.19,-1175.33"/>
</g>
<!-- 5 -->
<g id="node4" class="node">
<title>5</title>
<text text-anchor="middle" x="194.78" y="-1152.33" font-family="Times,serif" font-size="14.00">fill(0) c1</text>
</g>
<!-- 0&#45;&#45;5 -->
<g id="edge3" class="edge">
<title>0&#45;&#45;5</title>
<path fill="none" stroke="lawngreen" stroke-width="3" d="M173.69,-1212.39C178.56,-1199.9 184.02,-1185.93 188.16,-1175.33"/>
</g>
<!-- 2 -->
<g id="node3" class="node">
<title>2</title>
<ellipse fill="none" stroke="black" cx="129.78" cy="-1070.85" rx="32.53" ry="32.53"/>
<text text-anchor="start" x="114.78" y="-1077.55" font-family="Times,serif" font-size="14.00">(0, 3)</text>
<text text-anchor="start" x="118.9" y="-1069.25" font-family="Times,serif" font-size="8.00">g(n)=1</text>
<text text-anchor="start" x="118.9" y="-1061.25" font-family="Times,serif" font-size="8.00">h(n)=0</text>
<text text-anchor="start" x="119.28" y="-1053.25" font-family="Times,serif" font-size="8.00">f(n)=1</text>
<text text-anchor="start" x="82.25" y="-1105.13" font-family="Times,serif" font-size="10.00">e: 2</text>
</g>
<!-- 3&#45;&#45;2 -->
<g id="edge2" class="edge">
<title>3&#45;&#45;2</title>
<path fill="none" stroke="black" d="M129.78,-1139.68C129.78,-1129.38 129.78,-1115.84 129.78,-1103.57"/>
</g>
<!-- 17 -->
<g id="node16" class="node">
<title>17</title>
<text text-anchor="middle" x="52.78" y="-979.27" font-family="Times,serif" font-size="14.00">pour(1, 0) c1</text>
</g>
<!-- 2&#45;&#45;17 -->
<g id="edge15" class="edge">
<title>2&#45;&#45;17</title>
<path fill="none" stroke="black" d="M108.33,-1046.3C95.6,-1032.33 79.76,-1014.94 68.25,-1002.31"/>
</g>
<!-- 19 -->
<g id="node18" class="node">
<title>19</title>
<text text-anchor="middle" x="129.78" y="-979.27" font-family="Times,serif" font-size="14.00">fill(0) c1</text>
</g>
<!-- 2&#45;&#45;19 -->
<g id="edge17" class="edge">
<title>2&#45;&#45;19</title>
<path fill="none" stroke="black" d="M129.78,-1037.89C129.78,-1025.74 129.78,-1012.37 129.78,-1002.16"/>
</g>
<!-- 4 -->
<g id="node5" class="node">
<title>4</title>
<ellipse fill="none" stroke="lawngreen" stroke-width="3" cx="200.78" cy="-1070.85" rx="32.53" ry="32.53"/>
<text text-anchor="start" x="185.78" y="-1077.55" font-family="Times,serif" font-size="14.00">(5, 0)</text>
<text text-anchor="start" x="189.9" y="-1069.25" font-family="Times,serif" font-size="8.00">g(n)=1</text>
<text text-anchor="start" x="189.9" y="-1061.25" font-family="Times,serif" font-size="8.00">h(n)=0</text>
<text text-anchor="start" x="190.28" y="-1053.25" font-family="Times,serif" font-size="8.00">f(n)=1</text>
<text text-anchor="start" x="153.25" y="-1105.13" font-family="Times,serif" font-size="10.00">e: 3</text>
</g>
<!-- 5&#45;&#45;4 -->
<g id="edge4" class="edge">
<title>5&#45;&#45;4</title>
<path fill="none" stroke="lawngreen" stroke-width="3" d="M195.96,-1139.68C196.67,-1129.67 197.6,-1116.6 198.45,-1104.61"/>
</g>
<!-- 7 -->
<g id="node6" class="node">
<title>7</title>
<text text-anchor="middle" x="206.78" y="-979.27" font-family="Times,serif" font-size="14.00">pour(0, 1) c1</text>
</g>
<!-- 4&#45;&#45;7 -->
<g id="edge5" class="edge">
<title>4&#45;&#45;7</title>
<path fill="none" stroke="lawngreen" stroke-width="3" d="M203.11,-1036.93C203.96,-1025.06 204.87,-1012.16 205.58,-1002.23"/>
</g>
<!-- 6 -->
<g id="node7" class="node">
<title>6</title>
<ellipse fill="none" stroke="lawngreen" stroke-width="3" cx="206.78" cy="-897.8" rx="32.53" ry="32.53"/>
<text text-anchor="start" x="191.78" y="-904.5" font-family="Times,serif" font-size="14.00">(2, 3)</text>
<text text-anchor="start" x="195.9" y="-896.2" font-family="Times,serif" font-size="8.00">g(n)=2</text>
<text text-anchor="start" x="195.9" y="-888.2" font-family="Times,serif" font-size="8.00">h(n)=0</text>
<text text-anchor="start" x="196.28" y="-880.2" font-family="Times,serif" font-size="8.00">f(n)=2</text>
<text text-anchor="start" x="159.25" y="-932.07" font-family="Times,serif" font-size="10.00">e: 4</text>
</g>
<!-- 7&#45;&#45;6 -->
<g id="edge6" class="edge">
<title>7&#45;&#45;6</title>
<path fill="none" stroke="lawngreen" stroke-width="3" d="M206.78,-966.62C206.78,-956.62 206.78,-943.55 206.78,-931.55"/>
</g>
<!-- 9 -->
<g id="node8" class="node">
<title>9</title>
<text text-anchor="middle" x="206.78" y="-806.22" font-family="Times,serif" font-size="14.00">empty(1) c1</text>
</g>
<!-- 6&#45;&#45;9 -->
<g id="edge7" class="edge">
<title>6&#45;&#45;9</title>
<path fill="none" stroke="lawngreen" stroke-width="3" d="M206.78,-863.87C206.78,-852.01 206.78,-839.11 206.78,-829.17"/>
</g>
<!-- 8 -->
<g id="node9" class="node">
<title>8</title>
<ellipse fill="none" stroke="lawngreen" stroke-width="3" cx="206.78" cy="-724.74" rx="32.53" ry="32.53"/>
<text text-anchor="start" x="191.78" y="-731.44" font-family="Times,serif" font-size="14.00">(2, 0)</text>
<text text-anchor="start" x="195.9" y="-723.14" font-family="Times,serif" font-size="8.00">g(n)=3</text>
<text text-anchor="start" x="195.9" y="-715.14" font-family="Times,serif" font-size="8.00">h(n)=0</text>
<text text-anchor="start" x="196.28" y="-707.14" font-family="Times,serif" font-size="8.00">f(n)=3</text>
<text text-anchor="start" x="159.25" y="-759.02" font-family="Times,serif" font-size="10.00">e: 7</text>
</g>
<!-- 9&#45;&#45;8 -->
<g id="edge8" class="edge">
<title>9&#45;&#45;8</title>
<path fill="none" stroke="lawngreen" stroke-width="3" d="M206.78,-793.57C206.78,-783.56 206.78,-770.49 206.78,-758.5"/>
</g>
<!-- 11 -->
<g id="node10" class="node">
<title>11</title>
<text text-anchor="middle" x="206.78" y="-633.17" font-family="Times,serif" font-size="14.00">pour(0, 1) c1</text>
</g>
<!-- 8&#45;&#45;11 -->
<g id="edge9" class="edge">
<title>8&#45;&#45;11</title>
<path fill="none" stroke="lawngreen" stroke-width="3" d="M206.78,-690.82C206.78,-678.95 206.78,-666.05 206.78,-656.12"/>
</g>
<!-- 10 -->
<g id="node11" class="node">
<title>10</title>
<ellipse fill="none" stroke="lawngreen" stroke-width="3" cx="206.78" cy="-551.69" rx="32.53" ry="32.53"/>
<text text-anchor="start" x="191.78" y="-558.39" font-family="Times,serif" font-size="14.00">(0, 2)</text>
<text text-anchor="start" x="195.9" y="-550.09" font-family="Times,serif" font-size="8.00">g(n)=4</text>
<text text-anchor="start" x="195.9" y="-542.09" font-family="Times,serif" font-size="8.00">h(n)=0</text>
<text text-anchor="start" x="196.28" y="-534.09" font-family="Times,serif" font-size="8.00">f(n)=4</text>
<text text-anchor="start" x="159.25" y="-585.97" font-family="Times,serif" font-size="10.00">e: 9</text>
</g>
<!-- 11&#45;&#45;10 -->
<g id="edge10" class="edge">
<title>11&#45;&#45;10</title>
<path fill="none" stroke="lawngreen" stroke-width="3" d="M206.78,-620.52C206.78,-610.51 206.78,-597.44 206.78,-585.44"/>
</g>
<!-- 13 -->
<g id="node12" class="node">
<title>13</title>
<text text-anchor="middle" x="206.78" y="-460.11" font-family="Times,serif" font-size="14.00">fill(0) c1</text>
</g>
<!-- 10&#45;&#45;13 -->
<g id="edge11" class="edge">
<title>10&#45;&#45;13</title>
<path fill="none" stroke="lawngreen" stroke-width="3" d="M206.78,-517.77C206.78,-505.9 206.78,-493 206.78,-483.06"/>
</g>
<!-- 12 -->
<g id="node13" class="node">
<title>12</title>
<ellipse fill="none" stroke="lawngreen" stroke-width="3" cx="206.78" cy="-378.63" rx="32.53" ry="32.53"/>
<text text-anchor="start" x="191.78" y="-385.33" font-family="Times,serif" font-size="14.00">(5, 2)</text>
<text text-anchor="start" x="195.9" y="-377.03" font-family="Times,serif" font-size="8.00">g(n)=5</text>
<text text-anchor="start" x="195.9" y="-369.03" font-family="Times,serif" font-size="8.00">h(n)=0</text>
<text text-anchor="start" x="196.28" y="-361.03" font-family="Times,serif" font-size="8.00">f(n)=5</text>
<text text-anchor="start" x="154" y="-412.91" font-family="Times,serif" font-size="10.00">e: 12</text>
</g>
<!-- 13&#45;&#45;12 -->
<g id="edge12" class="edge">
<title>13&#45;&#45;12</title>
<path fill="none" stroke="lawngreen" stroke-width="3" d="M206.78,-447.46C206.78,-437.45 206.78,-424.38 206.78,-412.39"/>
</g>
<!-- 15 -->
<g id="node14" class="node">
<title>15</title>
<text text-anchor="middle" x="206.78" y="-287.06" font-family="Times,serif" font-size="14.00">pour(0, 1) c1</text>
</g>
<!-- 12&#45;&#45;15 -->
<g id="edge13" class="edge">
<title>12&#45;&#45;15</title>
<path fill="none" stroke="lawngreen" stroke-width="3" stroke-dasharray="5,2" d="M206.78,-344.71C206.78,-332.85 206.78,-319.94 206.78,-310.01"/>
</g>
<!-- 14 -->
<g id="node15" class="node">
<title>14</title>
<polygon fill="none" stroke="lawngreen" stroke-width="3" stroke-dasharray="5,2" points="233.78,-228.58 179.78,-228.58 179.78,-182.58 233.78,-182.58 233.78,-228.58"/>
<text text-anchor="start" x="191.78" y="-212.28" font-family="Times,serif" font-size="14.00">(4, 3)</text>
<text text-anchor="start" x="195.9" y="-203.98" font-family="Times,serif" font-size="8.00">g(n)=6</text>
<text text-anchor="start" x="195.9" y="-195.98" font-family="Times,serif" font-size="8.00">h(n)=0</text>
<text text-anchor="start" x="196.28" y="-187.98" font-family="Times,serif" font-size="8.00">f(n)=6</text>
</g>
<!-- 15&#45;&#45;14 -->
<g id="edge14" class="edge">
<title>15&#45;&#45;14</title>
<path fill="none" stroke="lawngreen" stroke-width="3" stroke-dasharray="5,2" d="M206.78,-274.41C206.78,-261.71 206.78,-244.07 206.78,-229.96"/>
</g>
<!-- 16 -->
<g id="node17" class="node">
<title>16</title>
<ellipse fill="none" stroke="black" cx="52.78" cy="-897.8" rx="32.53" ry="32.53"/>
<text text-anchor="start" x="37.78" y="-904.5" font-family="Times,serif" font-size="14.00">(3, 0)</text>
<text text-anchor="start" x="41.9" y="-896.2" font-family="Times,serif" font-size="8.00">g(n)=2</text>
<text text-anchor="start" x="41.9" y="-888.2" font-family="Times,serif" font-size="8.00">h(n)=0</text>
<text text-anchor="start" x="42.28" y="-880.2" font-family="Times,serif" font-size="8.00">f(n)=2</text>
<text text-anchor="start" x="5.25" y="-932.07" font-family="Times,serif" font-size="10.00">e: 5</text>
</g>
<!-- 17&#45;&#45;16 -->
<g id="edge16" class="edge">
<title>17&#45;&#45;16</title>
<path fill="none" stroke="black" d="M52.78,-966.62C52.78,-956.33 52.78,-942.79 52.78,-930.52"/>
</g>
<!-- 21 -->
<g id="node20" class="node">
<title>21</title>
<text text-anchor="middle" x="52.78" y="-806.22" font-family="Times,serif" font-size="14.00">fill(1) c1</text>
</g>
<!-- 16&#45;&#45;21 -->
<g id="edge19" class="edge">
<title>16&#45;&#45;21</title>
<path fill="none" stroke="black" d="M52.78,-864.84C52.78,-852.68 52.78,-839.32 52.78,-829.1"/>
</g>
<!-- 18 -->
<g id="node19" class="node">
<title>18</title>
<ellipse fill="none" stroke="black" cx="129.78" cy="-897.8" rx="32.53" ry="32.53"/>
<text text-anchor="start" x="114.78" y="-904.5" font-family="Times,serif" font-size="14.00">(5, 3)</text>
<text text-anchor="start" x="118.9" y="-896.2" font-family="Times,serif" font-size="8.00">g(n)=2</text>
<text text-anchor="start" x="118.9" y="-888.2" font-family="Times,serif" font-size="8.00">h(n)=0</text>
<text text-anchor="start" x="119.28" y="-880.2" font-family="Times,serif" font-size="8.00">f(n)=2</text>
<text text-anchor="start" x="82.25" y="-932.07" font-family="Times,serif" font-size="10.00">e: 6</text>
</g>
<!-- 19&#45;&#45;18 -->
<g id="edge18" class="edge">
<title>19&#45;&#45;18</title>
<path fill="none" stroke="black" d="M129.78,-966.62C129.78,-956.33 129.78,-942.79 129.78,-930.52"/>
</g>
<!-- 20 -->
<g id="node21" class="node">
<title>20</title>
<ellipse fill="none" stroke="black" cx="52.78" cy="-724.74" rx="32.53" ry="32.53"/>
<text text-anchor="start" x="37.78" y="-731.44" font-family="Times,serif" font-size="14.00">(3, 3)</text>
<text text-anchor="start" x="41.9" y="-723.14" font-family="Times,serif" font-size="8.00">g(n)=3</text>
<text text-anchor="start" x="41.9" y="-715.14" font-family="Times,serif" font-size="8.00">h(n)=0</text>
<text text-anchor="start" x="42.28" y="-707.14" font-family="Times,serif" font-size="8.00">f(n)=3</text>
<text text-anchor="start" x="5.25" y="-759.02" font-family="Times,serif" font-size="10.00">e: 8</text>
</g>
<!-- 21&#45;&#45;20 -->
<g id="edge20" class="edge">
<title>21&#45;&#45;20</title>
<path fill="none" stroke="black" d="M52.78,-793.57C52.78,-783.27 52.78,-769.73 52.78,-757.46"/>
</g>
<!-- 23 -->
<g id="node22" class="node">
<title>23</title>
<text text-anchor="middle" x="52.78" y="-633.17" font-family="Times,serif" font-size="14.00">pour(1, 0) c1</text>
</g>
<!-- 20&#45;&#45;23 -->
<g id="edge21" class="edge">
<title>20&#45;&#45;23</title>
<path fill="none" stroke="black" d="M52.78,-691.79C52.78,-679.63 52.78,-666.26 52.78,-656.05"/>
</g>
<!-- 22 -->
<g id="node23" class="node">
<title>22</title>
<ellipse fill="none" stroke="black" cx="52.78" cy="-551.69" rx="32.53" ry="32.53"/>
<text text-anchor="start" x="37.78" y="-558.39" font-family="Times,serif" font-size="14.00">(5, 1)</text>
<text text-anchor="start" x="41.9" y="-550.09" font-family="Times,serif" font-size="8.00">g(n)=4</text>
<text text-anchor="start" x="41.9" y="-542.09" font-family="Times,serif" font-size="8.00">h(n)=0</text>
<text text-anchor="start" x="42.28" y="-534.09" font-family="Times,serif" font-size="8.00">f(n)=4</text>
<text text-anchor="start" x="0" y="-585.97" font-family="Times,serif" font-size="10.00">e: 10</text>
</g>
<!-- 23&#45;&#45;22 -->
<g id="edge22" class="edge">
<title>23&#45;&#45;22</title>
<path fill="none" stroke="black" d="M52.78,-620.52C52.78,-610.22 52.78,-596.68 52.78,-584.41"/>
</g>
<!-- 25 -->
<g id="node24" class="node">
<title>25</title>
<text text-anchor="middle" x="52.78" y="-460.11" font-family="Times,serif" font-size="14.00">empty(0) c1</text>
</g>
<!-- 22&#45;&#45;25 -->
<g id="edge23" class="edge">
<title>22&#45;&#45;25</title>
<path fill="none" stroke="black" d="M52.78,-518.73C52.78,-506.58 52.78,-493.21 52.78,-483"/>
</g>
<!-- 24 -->
<g id="node25" class="node">
<title>24</title>
<ellipse fill="none" stroke="black" cx="52.78" cy="-378.63" rx="32.53" ry="32.53"/>
<text text-anchor="start" x="37.78" y="-385.33" font-family="Times,serif" font-size="14.00">(0, 1)</text>
<text text-anchor="start" x="41.9" y="-377.03" font-family="Times,serif" font-size="8.00">g(n)=5</text>
<text text-anchor="start" x="41.9" y="-369.03" font-family="Times,serif" font-size="8.00">h(n)=0</text>
<text text-anchor="start" x="42.28" y="-361.03" font-family="Times,serif" font-size="8.00">f(n)=5</text>
<text text-anchor="start" x="0.75" y="-412.91" font-family="Times,serif" font-size="10.00">e: 11</text>
</g>
<!-- 25&#45;&#45;24 -->
<g id="edge24" class="edge">
<title>25&#45;&#45;24</title>
<path fill="none" stroke="black" d="M52.78,-447.46C52.78,-437.17 52.78,-423.63 52.78,-411.36"/>
</g>
<!-- 27 -->
<g id="node26" class="node">
<title>27</title>
<text text-anchor="middle" x="52.78" y="-287.06" font-family="Times,serif" font-size="14.00">pour(1, 0) c1</text>
</g>
<!-- 24&#45;&#45;27 -->
<g id="edge25" class="edge">
<title>24&#45;&#45;27</title>
<path fill="none" stroke="black" d="M52.78,-345.68C52.78,-333.52 52.78,-320.16 52.78,-309.94"/>
</g>
<!-- 26 -->
<g id="node27" class="node">
<title>26</title>
<ellipse fill="none" stroke="black" cx="52.78" cy="-205.58" rx="32.53" ry="32.53"/>
<text text-anchor="start" x="37.78" y="-212.28" font-family="Times,serif" font-size="14.00">(1, 0)</text>
<text text-anchor="start" x="41.9" y="-203.98" font-family="Times,serif" font-size="8.00">g(n)=6</text>
<text text-anchor="start" x="41.9" y="-195.98" font-family="Times,serif" font-size="8.00">h(n)=0</text>
<text text-anchor="start" x="42.28" y="-187.98" font-family="Times,serif" font-size="8.00">f(n)=6</text>
<text text-anchor="start" x="0" y="-239.86" font-family="Times,serif" font-size="10.00">e: 13</text>
</g>
<!-- 27&#45;&#45;26 -->
<g id="edge26" class="edge">
<title>27&#45;&#45;26</title>
<path fill="none" stroke="black" d="M52.78,-274.41C52.78,-264.11 52.78,-250.57 52.78,-238.3"/>
</g>
<!-- 29 -->
<g id="node28" class="node">
<title>29</title>
<text text-anchor="middle" x="52.78" y="-114" font-family="Times,serif" font-size="14.00">fill(1) c1</text>
</g>
<!-- 26&#45;&#45;29 -->
<g id="edge27" class="edge">
<title>26&#45;&#45;29</title>
<path fill="none" stroke="black" stroke-dasharray="1,5" d="M52.78,-172.62C52.78,-160.47 52.78,-147.1 52.78,-136.89"/>
</g>
<!-- 28 -->
<g id="node29" class="node">
<title>28</title>
<ellipse fill="none" stroke="black" stroke-dasharray="1,5" cx="52.78" cy="-32.53" rx="32.53" ry="32.53"/>
<text text-anchor="start" x="37.78" y="-39.23" font-family="Times,serif" font-size="14.00">(1, 3)</text>
<text text-anchor="start" x="41.9" y="-30.93" font-family="Times,serif" font-size="8.00">g(n)=7</text>
<text text-anchor="start" x="41.9" y="-22.93" font-family="Times,serif" font-size="8.00">h(n)=0</text>
<text text-anchor="start" x="42.28" y="-14.93" font-family="Times,serif" font-size="8.00">f(n)=7</text>
</g>
<!-- 29&#45;&#45;28 -->
<g id="edge28" class="edge">
<title>29&#45;&#45;28</title>
<path fill="none" stroke="black" stroke-dasharray="1,5" d="M52.78,-101.35C52.78,-91.06 52.78,-77.52 52.78,-65.25"/>
</g>
</g>
</svg>
